0
SECTION
2
HEADER
9
$INSUNITS
70
5
9
$ACADVER
1
AC1014
9
$HANDSEED
5
FFFF
0
ENDSEC
0
SECTION
2
TABLES
0
TABLE
2
VPORT
5
8
100
AcDbSymbolTable
0
ENDTAB
0
TABLE
2
LTYPE
5
5
100
AcDbSymbolTable
0
LTYPE
5
14
100
AcDbSymbolTableRecord
100
AcDbLinetypeTableRecord
2
BYBLOCK
70
0
0
LTYPE
5
15
100
AcDbSymbolTableRecord
100
AcDbLinetypeTableRecord
2
BYLAYER
70
0
0
LTYPE
5
16
100
AcDbSymbolTableRecord
100
AcDbLinetypeTableRecord
2
DASHED
70
0
3
Dashed __ __ __ __ __ __ __ __ __ __ __ __ __ _
72
65
73
2
40
0.75
49
0.5
74
0
49
-0.25
74
0
0
ENDTAB
0
TABLE
2
LAYER
5
2
100
AcDbSymbolTable
70
2
0
LAYER
5
50
100
AcDbSymbolTableRecord
100
AcDbLayerTableRecord
2
0
70
0
62
7
6
CONTINUOUS
0
ENDTAB
0
TABLE
2
STYLE
5
3
100
AcDbSymbolTable
70
1
0
STYLE
5
11
100
AcDbSymbolTableRecord
100
AcDbTextStyleTableRecord
2
STANDARD
70
0
0
ENDTAB
0
TABLE
2
VIEW
5
6
100
AcDbSymbolTable
70
0
0
ENDTAB
0
TABLE
2
UCS
5
7
100
AcDbSymbolTable
70
0
0
ENDTAB
0
TABLE
2
APPID
5
9
100
AcDbSymbolTable
70
2
0
APPID
5
12
100
AcDbSymbolTableRecord
100
AcDbRegAppTableRecord
2
ACAD
70
0
0
ENDTAB
0
TABLE
2
DIMSTYLE
5
A
100
AcDbSymbolTable
70
1
0
ENDTAB
0
TABLE
2
BLOCK_RECORD
5
1
100
AcDbSymbolTable
70
1
0
BLOCK_RECORD
5
1F
100
AcDbSymbolTableRecord
100
AcDbBlockTableRecord
2
*MODEL_SPACE
0
BLOCK_RECORD
5
1B
100
AcDbSymbolTableRecord
100
AcDbBlockTableRecord
2
*PAPER_SPACE
0
ENDTAB
0
ENDSEC
0
SECTION
2
BLOCKS
0
BLOCK
5
20
100
AcDbEntity
100
AcDbBlockBegin
2
*MODEL_SPACE
0
ENDBLK
5
21
100
AcDbEntity
100
AcDbBlockEnd
0
BLOCK
5
1C
100
AcDbEntity
100
AcDbBlockBegin
2
*PAPER_SPACE
0
ENDBLK
5
1D
100
AcDbEntity
100
AcDbBlockEnd
0
ENDSEC
0
SECTION
2
ENTITIES
0
LWPOLYLINE
5
100
100
AcDbEntity
8
0
100
AcDbPolyline
90
4
70
1
43
0.0
10
2.3902834955586219
20
10.074356199483709
42
0.99999999999999989
10
3.3562093218476878
20
10.333175244586236
42
0.26794919243112258
10
-4.4219652712043365
20
18.111349837638254
42
0.99999999999999989
10
-4.6807843163068608
20
17.145424011349185
42
-0.26794919243112275
0
LWPOLYLINE
5
101
100
AcDbEntity
8
0
100
AcDbPolyline
90
4
70
1
43
0.0
10
-4.6807843163068572
20
-2.1730925144321858
42
0.99999999999999989
10
-4.421965271204332
20
-3.1390183407212531
42
0.26794919243112247
10
3.3562093218476852
20
4.6391562523307677
42
0.99999999999999989
10
2.3902834955586219
20
4.8979752974332875
42
-0.26794919243112264
0
LWPOLYLINE
5
102
100
AcDbEntity
8
0
100
AcDbPolyline
90
4
70
1
43
0.0
10
-16.928233030222749
20
4.897975297433292
42
0.99999999999999989
10
-17.894158856511815
20
4.6391562523307748
42
0.26794919243112264
10
-10.115984263459797
20
-3.1390183407212504
42
0.99999999999999989
10
-9.8571652183572773
20
-2.1730925144321871
42
-0.26794919243112264
0
LINE
5
103
100
AcDbEntity
8
0
100
AcDbLine
10
-3.8048731521943102
20
7.9861657484584994
30
0
11
2.7185174103870207
21
7.9861657484584976
31
0
0
LWPOLYLINE
5
104
100
AcDbEntity
8
0
100
AcDbPolyline
90
4
70
1
43
0.0
10
-7.7689747673320637
20
10.950267363596254
10
-7.7689747673320717
20
17.473657926177587
42
-0.025015644561821333
10
-6.7689747673320602
20
17.473657926177587
10
-6.7689747673320628
20
10.950267363596254
42
0.071796769724490866
0
ARC
5
105
100
AcDbEntity
8
0
100
AcDbCircle
10
-7.2689747673320646
20
7.4861657484584994
30
0
40
9.9999999999999982
210
-0
220
0
230
1
100
AcDbArc
50
-2.8659839825988778
51
2.8659839825988596
0
LINE
5
106
100
AcDbEntity
8
0
100
AcDbLine
10
2.7185174103870233
20
6.986165748458502
30
0
11
-3.8048731521943102
21
6.9861657484584976
31
0
0
LWPOLYLINE
5
107
100
AcDbEntity
8
0
100
AcDbPolyline
90
4
70
1
43
0.0
10
-17.256466945051152
20
7.986165748458494
42
0.025015644561821374
10
-17.256466945051152
20
6.9861657484584994
10
-10.733076382469818
20
6.9861657484584976
42
-0.07179676972449095
10
-10.733076382469818
20
7.9861657484584994
0
LWPOLYLINE
5
108
100
AcDbEntity
8
0
100
AcDbPolyline
90
4
70
1
43
0.0
10
-9.8571652183572667
20
17.145424011349185
42
0.99999999999999989
10
-10.115984263459801
20
18.111349837638251
42
0.26794919243112231
10
-17.894158856511812
20
10.333175244586236
42
0.99999999999999989
10
-16.928233030222746
20
10.074356199483715
42
-0.26794919243112264
0
LWPOLYLINE
5
109
100
AcDbEntity
8
0
100
AcDbPolyline
90
8
70
1
43
0.0
10
0.54352523266793451
20
19.9861657484585
10
-14.690849767332065
20
19.986165748458504
10
-19.768974767332065
20
14.908040748458497
10
-19.768974767332065
20
-0.32633425154150153
10
-15.081474767332065
20
-5.0138342515415024
10
-1.0189747673320646
20
-5.013834251541506
10
5.2310252326679345
20
1.2361657484585002
10
5.2310252326679345
20
15.2986657484585
0
ARC
5
110
100
AcDbEntity
8
0
100
AcDbCircle
10
-7.2689747673320646
20
7.4861657484584994
30
0
40
3.5
210
-0
220
0
230
1
100
AcDbArc
50
-8.2132107017382161
51
8.2132107017381486
0
LWPOLYLINE
5
111
100
AcDbEntity
8
0
100
AcDbPolyline
90
4
70
1
43
0.0
10
-6.7689747673320646
20
6.9861657484584994
10
-7.7689747673320646
20
6.9861657484584994
10
-7.7689747673320646
20
7.9861657484584994
10
-6.7689747673320646
20
7.9861657484584994
0
LWPOLYLINE
5
112
100
AcDbEntity
8
0
100
AcDbPolyline
90
4
70
1
43
0.0
10
-7.7689747673320664
20
-2.5013264292605877
42
0.025015644561821374
10
-6.7689747673320593
20
-2.5013264292605868
10
-6.7689747673320664
20
4.022064133320745
42
-0.071796769724490617
10
-7.7689747673320637
20
4.022064133320745
0
ENDSEC
0
SECTION
2
OBJECTS
0
DICTIONARY
5
C
100
AcDbDictionary
3
ACAD_GROUP
350
D
3
ACAD_MLINESTYLE
350
17
0
DICTIONARY
5
D
100
AcDbDictionary
0
DICTIONARY
5
1A
330
C
100
AcDbDictionary
0
DICTIONARY
5
17
100
AcDbDictionary
0
ENDSEC
0
EOF
